<?xml version="1.0"?>
<svg xmlns="http://www.w3.org/2000/svg" xmlns:xlink="http://www.w3.org/1999/xlink" xmlns:svgjs="http://svgjs.com/svgjs" version="1.1" width="38" height="38" x="0" y="0" viewBox="0 0 24 24" style="enable-background:new 0 0 512 512" xml:space="preserve" class=""><g><path xmlns="http://www.w3.org/2000/svg" d="m1.75 18h7.5c.965 0 1.75-.785 1.75-1.75v-4c0-.965-.785-1.75-1.75-1.75h-7.5c-.965 0-1.75.785-1.75 1.75v4c0 .965.785 1.75 1.75 1.75z" fill="#dd4c4c" data-original="#000000" style="" class=""/><path xmlns="http://www.w3.org/2000/svg" d="m23.25 10.5h-9.5c-.414 0-.75.336-.75.75s.336.75.75.75h9.5c.414 0 .75-.336.75-.75s-.336-.75-.75-.75z" fill="#dd4c4c" data-original="#000000" style="" class=""/><path xmlns="http://www.w3.org/2000/svg" d="m23.25 13.5h-9.5c-.414 0-.75.336-.75.75s.336.75.75.75h9.5c.414 0 .75-.336.75-.75s-.336-.75-.75-.75z" fill="#dd4c4c" data-original="#000000" style="" class=""/><path xmlns="http://www.w3.org/2000/svg" d="m23.25 16.5h-9.5c-.414 0-.75.336-.75.75s.336.75.75.75h9.5c.414 0 .75-.336.75-.75s-.336-.75-.75-.75z" fill="#dd4c4c" data-original="#000000" style="" class=""/><path xmlns="http://www.w3.org/2000/svg" d="m23.25 19.5h-22.5c-.414 0-.75.336-.75.75s.336.75.75.75h22.5c.414 0 .75-.336.75-.75s-.336-.75-.75-.75z" fill="#dd4c4c" data-original="#000000" style="" class=""/><path xmlns="http://www.w3.org/2000/svg" d="m23.25 22.5h-22.5c-.414 0-.75.336-.75.75s.336.75.75.75h22.5c.414 0 .75-.336.75-.75s-.336-.75-.75-.75z" fill="#dd4c4c" data-original="#000000" style="" class=""/><path xmlns="http://www.w3.org/2000/svg" d="m22.25 0h-20.5c-.965 0-1.75.785-1.75 1.75v5.5c0 .965.785 1.75 1.75 1.75h20.5c.965 0 1.75-.785 1.75-1.75v-5.5c0-.965-.785-1.75-1.75-1.75z" fill="#dd4c4c" data-original="#000000" style="" class=""/></g></svg>
