<?xml version="1.0"?>
<svg xmlns="http://www.w3.org/2000/svg" xmlns:xlink="http://www.w3.org/1999/xlink" xmlns:svgjs="http://svgjs.com/svgjs" version="1.1" width="24" height="24" x="0" y="0" viewBox="0 0 512 512" style="enable-background:new 0 0 512 512" xml:space="preserve" class=""><g><g xmlns="http://www.w3.org/2000/svg"><g><path d="m437 451h-362c-41.353 0-75-33.647-75-75v-240c0-41.353 33.647-75 75-75h362c41.353 0 75 33.647 75 75v240c0 41.353-33.647 75-75 75z" fill="#3a89e7" data-original="#ff641a" style="" class=""/></g><path d="m256 451h181c41.353 0 75-33.647 75-75v-240c0-41.353-33.647-75-75-75h-181z" fill="#2977d3" data-original="#f03800" style="" class=""/><g id="Youtube_1_"><g><g><path d="m211 346c-2.505 0-5.01-.63-7.266-1.875-4.775-2.651-7.734-7.676-7.734-13.125v-150c0-5.449 2.959-10.474 7.734-13.125 4.717-2.637 10.591-2.505 15.22.41l120 75c4.38 2.739 7.046 7.544 7.046 12.715s-2.666 9.976-7.046 12.715l-120 75c-2.432 1.523-5.185 2.285-7.954 2.285z" fill="#fff5f5" data-original="#fff5f5" style="" class=""/></g></g></g><path d="m256 320.561 82.954-51.846c4.38-2.739 7.046-7.544 7.046-12.715s-2.666-9.976-7.046-12.715l-82.954-51.846z" fill="#e3e7ea" data-original="#e3e7ea" style="" class=""/></g></g></svg>
